<svg width="69" height="46" viewBox="0 0 69 46" fill="none" xmlns="http://www.w3.org/2000/svg">
<path fill-rule="evenodd" clip-rule="evenodd" d="M65.815 0H2.279C1.021 0 0 1.021 0 2.279V42.729C0 43.991 1.021 45.016 2.279 45.016H65.814C67.072 45.016 68.093 43.991 68.093 42.729V2.279C68.094 1.021 67.072 0 65.815 0ZM60.848 3.943L34.043 28.217L7.238 3.943H60.848ZM4.557 7.469L20.512 22.505L4.557 37.546V7.469ZM7.238 40.871L24.088 25.614L33.951 34.829L44.162 25.614L60.848 40.871H7.238ZM63.815 37.546L47.86 22.506L63.815 7.47V37.546Z" fill="white"/>
</svg>
